<?xml version="1.0" encoding="utf-8"?>
<!-- Generator: Adobe Illustrator 22.1.0, SVG Export Plug-In . SVG Version: 6.00 Build 0)  -->
<svg version="1.1" id="Layer_1" xmlns="http://www.w3.org/2000/svg" xmlns:xlink="http://www.w3.org/1999/xlink" x="0px" y="0px"
	 viewBox="0 0 132.7 20.4" style="enable-background:new 0 0 132.7 20.4;" xml:space="preserve">
<style type="text/css">
	.st0{fill:#FFFFFF;}
	.st1{fill:none;}
</style>
<path class="st0" d="M6.8,3.3c1.6,0,3.3,0.2,4.7,1.7c1.1,1,1.7,2.4,1.7,4.3s-0.6,3.3-1.6,4.2c-1.7,1.7-3.7,1.8-4.7,1.8H3v-12
	C3,3.3,6.8,3.3,6.8,3.3z M5.8,12.9h0.7c0.6,0,1.8-0.1,2.7-0.8c0.6-0.5,1.2-1.6,1.2-2.9s-0.5-2.1-1-2.6c-0.9-0.9-2.1-1-2.9-1H5.8
	C5.8,5.6,5.8,12.9,5.8,12.9z"/>
<path class="st0" d="M25.7,5.6h-4v2.3h3.8v2.3h-3.8v2.7h4v2.3h-6.8v-12h6.8V5.6z"/>
<path class="st0" d="M38.6,13h-4.5l-0.9,2.3h-2.9l4.8-12h2.5l4.7,12h-2.9L38.6,13z M37.8,10.9l-1.5-4l-1.5,4H37.8z"/>
<path class="st0" d="M47.3,15.3v-12h2.4l6.5,7.7V3.3H59v12h-2.4l-6.5-7.8v7.8H47.3z"/>
<path class="st0" d="M69.1,3.3c1.6,0,3.3,0.2,4.7,1.7c1.1,1,1.7,2.4,1.7,4.3s-0.6,3.3-1.6,4.2c-1.7,1.7-3.7,1.8-4.7,1.8h-3.9v-12
	C65.3,3.3,69.1,3.3,69.1,3.3z M68,12.9h0.7c0.6,0,1.8-0.1,2.7-0.8c0.6-0.5,1.2-1.6,1.2-2.9s-0.5-2.1-1-2.6c-0.9-0.9-2.1-1-2.9-1H68
	C68,5.6,68,12.9,68,12.9z"/>
<path class="st0" d="M88.1,13h-4.5l-0.9,2.3h-2.9l4.8-12h2.5l4.7,12H89C89,15.3,88.1,13,88.1,13z M87.3,10.9l-1.5-4l-1.5,4H87.3z"/>
<path class="st0" d="M99.6,3.3V13h3.7v2.3h-6.5v-12C96.8,3.3,99.6,3.3,99.6,3.3z"/>
<path class="st0" d="M115.2,5.6h-4v2.3h3.8v2.3h-3.8v2.7h4v2.3h-6.8v-12h6.8V5.6z"/>
<path class="st0" d="M127.3,6.2c-0.9-0.8-1.7-0.9-2-0.9c-0.4,0-0.8,0.1-1.2,0.4c-0.2,0.2-0.3,0.5-0.3,0.8s0.1,0.5,0.3,0.7
	c0.3,0.3,0.7,0.4,1.5,0.7l0.9,0.3c0.5,0.2,1.2,0.5,1.6,0.9c0.7,0.7,0.9,1.5,0.9,2.2c0,1.2-0.4,2.3-1.1,3c-1.1,1.1-2.6,1.2-3.4,1.2
	c-0.9,0-1.6-0.1-2.4-0.5c-0.6-0.3-1.3-0.9-1.8-1.3l1.4-2c0.3,0.3,0.8,0.7,1.1,0.9c0.5,0.3,1,0.4,1.5,0.4c0.4,0,0.9-0.1,1.3-0.4
	c0.2-0.2,0.4-0.5,0.4-1c0-0.4-0.2-0.6-0.4-0.9c-0.3-0.3-1.1-0.5-1.4-0.7l-1-0.3c-0.6-0.2-1.2-0.5-1.7-1S121,7.4,121,6.8
	c0-1.1,0.3-2,1-2.7c0.8-0.9,1.9-1.1,3-1.1c0.8,0,2.2,0.1,3.6,1.2C128.6,4.2,127.3,6.2,127.3,6.2z"/>
<rect x="-0.1" class="st1" width="133" height="20"/>
</svg>
